<svg width="1060" height="358" xmlns="http://www.w3.org/2000/svg">

 <g>
  <title>background</title>
  <rect fill="none" id="canvas_background" height="360" width="1062" y="-1" x="-1"/>
 </g>
 <g>
  <title>Layer 1</title>
  <g stroke="null" id="svg_20">
   <path stroke="null" id="svg_1" fill="#FFDC64" d="m340.183775,134.278175l-107.20785,-9.585491l-42.585697,-95.334194c-2.981751,-6.67498 -12.799486,-6.67498 -15.780571,0l-42.585697,95.333552l-107.20785,9.585491c-7.506661,0.670965 -10.540361,9.672171 -4.876566,14.468448l80.888915,68.50522l-23.673521,101.258591c-1.657713,7.089758 6.284522,12.653311 12.766851,8.942135l92.576821,-52.994689l92.577487,52.994689c6.481663,3.711176 14.42523,-1.852377 12.767517,-8.942135l-23.672855,-101.257949l80.888915,-68.50522c5.664462,-4.796277 2.631427,-13.797483 -4.8759,-14.468448z"/>
   <path stroke="null" id="svg_2" fill="#FFC850" d="m190.390228,29.358489c-2.981751,-6.67498 -12.799486,-6.67498 -15.780571,0l-42.585697,95.333552l-107.20785,9.585491c-7.506661,0.670965 -10.540361,9.672171 -4.876566,14.468448l80.888915,68.50522l-23.673521,101.258591c-1.657713,7.089758 6.284522,12.653311 12.766851,8.942135l20.662465,-11.828249c2.859871,-113.488777 57.55706,-193.408109 100.862054,-239.127481l-21.05608,-47.137709z"/>
   <path stroke="null" id="svg_3" d="m352.311918,138.477325c-1.705,-5.056316 -6.17463,-8.502958 -11.66726,-8.994143l-104.254737,-9.3216l-20.665795,-46.263849c-1.091599,-2.442442 -4.028728,-3.571204 -6.562917,-2.518206c-2.533523,1.051714 -3.703046,3.884535 -2.612113,6.326334l21.839314,48.889923c0.723293,1.618663 2.306412,2.727521 4.126632,2.889966l107.20785,9.585491c2.127254,0.190053 2.868529,1.728458 3.08898,2.380803c0.219785,0.652345 0.558121,2.316595 -1.046976,3.675862l-80.889581,68.506504c-1.37399,1.163434 -1.978066,2.956741 -1.575793,4.67621l23.673521,101.256665c0.469541,2.009685 -0.818533,3.164772 -1.395302,3.567994c-0.575437,0.403221 -2.111269,1.229568 -3.950138,0.175928l-92.578153,-52.994689c-1.571131,-0.898901 -3.529216,-0.898901 -5.099681,0l-92.578153,52.994689c-1.838203,1.054282 -3.374035,0.227293 -3.950138,-0.175928c-0.576103,-0.403221 -1.864843,-1.558309 -1.395302,-3.567351l12.220053,-52.268505c0.60674,-2.594613 -1.083607,-5.171889 -3.77431,-5.756175c-2.695365,-0.584285 -5.364089,1.044651 -5.970829,3.638621l-12.220053,52.269147c-1.212148,5.186657 0.806545,10.350199 5.268183,13.475805c4.461638,3.124322 10.180047,3.380509 14.920745,0.665829l90.02798,-51.535259l90.02798,51.535259c2.184531,1.250114 4.575527,1.870355 6.9552,1.870355c2.787275,0 5.559231,-0.850745 7.965545,-2.536184c4.462304,-3.125606 6.480331,-8.288506 5.268183,-13.476447l-23.020826,-98.468147l78.663091,-66.617528c4.143948,-3.509565 5.658468,-8.830415 3.9548,-13.887373z"/>
   <path stroke="null" id="svg_4" d="m89.314383,244.596401c-0.60674,2.594613 1.083607,5.171889 3.77431,5.756175c0.370305,0.080259 0.739277,0.119425 1.102922,0.119425c2.284433,0 4.345085,-1.519784 4.867907,-3.758047l6.640175,-28.403335c0.402273,-1.720111 -0.202469,-3.51406 -1.575793,-4.67621l-80.888249,-68.50522c-1.605097,-1.359266 -1.266761,-3.023517 -1.04631,-3.675862c0.219785,-0.652345 0.960394,-2.190749 3.088314,-2.380803l107.207184,-9.585491c1.82022,-0.162444 3.403339,-1.271302 4.126632,-2.889966l42.585031,-95.33291c0.845174,-1.891544 2.591466,-2.096365 3.302771,-2.096365c0.711971,0 2.458263,0.204179 3.303437,2.095723l11.566691,25.892834c1.092265,2.442442 4.029394,3.570562 6.562917,2.518206c2.533523,-1.051714 3.703046,-3.884535 2.612113,-6.326334l-11.566691,-25.893476c-2.181867,-4.882957 -6.962526,-7.916747 -12.478467,-7.916747c-5.514608,0 -10.295934,3.03379 -12.477801,7.917389l-41.412844,92.707478l-104.253405,9.320316c-5.491298,0.491185 -9.96226,3.937185 -11.66726,8.994143c-1.704334,5.056316 -0.189148,10.377808 3.9548,13.887373l78.660427,66.61817l-5.988811,25.613532z"/>
   <g stroke="null" id="svg_5"/>
   <g stroke="null" id="svg_6"/>
   <g stroke="null" id="svg_7"/>
   <g stroke="null" id="svg_8"/>
   <g stroke="null" id="svg_9"/>
   <g stroke="null" id="svg_10"/>
   <g stroke="null" id="svg_11"/>
   <g stroke="null" id="svg_12"/>
   <g stroke="null" id="svg_13"/>
   <g stroke="null" id="svg_14"/>
   <g stroke="null" id="svg_15"/>
   <g stroke="null" id="svg_16"/>
   <g stroke="null" id="svg_17"/>
   <g stroke="null" id="svg_18"/>
   <g stroke="null" id="svg_19"/>
  </g>
  <g stroke="null" id="svg_68">
   <g stroke="null" transform="matrix(0.6636980567140844,0,0,0.6331415912185414,-5399.337515391122,-2073.421364204417) " id="svg_49">
    <g stroke="null" id="svg_48">
     <path stroke="null" id="svg_47" d="m9720.482282,3492.783935c-2.56,-7.875 -9.271,-13.243 -17.518,-14.008l-156.535,-14.518l-31.029,-72.054c-1.639,-3.804 -6.049,-5.562 -9.854,-3.922c-3.804,1.638 -5.56,6.05 -3.922,9.853l32.791,76.144c1.086,2.521 3.463,4.248 6.196,4.501l160.969,14.929c3.194,0.296 4.307,2.692 4.638,3.708c0.33,1.016 0.838,3.608 -1.572,5.725l-121.453,106.696c-2.063,1.812 -2.97,4.605 -2.366,7.284l35.545,157.703c0.705,3.13 -1.229,4.929 -2.095,5.557c-0.864,0.628 -3.17,1.915 -5.931,0.274l-139.003,-82.537c-2.359,-1.4 -5.299,-1.4 -7.657,0l-139.003,82.537c-2.76,1.642 -5.066,0.354 -5.931,-0.274s-2.8,-2.427 -2.095,-5.556l18.348,-81.406c0.911,-4.041 -1.627,-8.055 -5.667,-8.965c-4.047,-0.91 -8.054,1.627 -8.965,5.667l-18.348,81.407c-1.82,8.078 1.211,16.12 7.91,20.988c6.699,4.866 15.285,5.265 22.404,1.037l135.174,-80.265l135.174,80.265c3.28,1.947 6.87,2.913 10.443,2.913c4.185,0 8.347,-1.325 11.96,-3.95c6.7,-4.868 9.73,-12.909 7.91,-20.989l-34.565,-153.36l118.109,-103.755c6.222,-5.466 8.496,-13.753 5.938,-21.629z"/>
    </g>
   </g>
   <g stroke="null" transform="matrix(0.6636980567140844,0,0,0.6331415912185414,-5399.337515391122,-2073.421364204417) " id="svg_52">
    <g stroke="null" id="svg_51">
     <path stroke="null" id="svg_50" d="m9501.616282,3360.197935l-17.367,-40.328c-3.276,-7.606 -10.454,-12.33 -18.736,-12.33c-8.28,0 -15.459,4.725 -18.735,12.331l-62.18,144.388l-156.532,14.517c-8.245,0.765 -14.958,6.132 -17.518,14.008c-2.559,7.875 -0.284,16.163 5.938,21.629l118.106,103.755l-8.991,39.892c-0.911,4.041 1.627,8.055 5.667,8.965c0.556,0.125 1.11,0.186 1.656,0.186c3.43,0 6.524,-2.367 7.309,-5.853l9.97,-44.237c0.604,-2.679 -0.304,-5.473 -2.366,-7.284l-121.452,-106.693c-2.41,-2.117 -1.902,-4.709 -1.571,-5.725c0.33,-1.016 1.442,-3.412 4.637,-3.708l160.968,-14.929c2.733,-0.253 5.11,-1.98 6.196,-4.501l63.94,-148.477c1.269,-2.946 3.891,-3.265 4.959,-3.265c1.069,0 3.691,0.318 4.96,3.264l17.367,40.327c1.64,3.804 6.05,5.561 9.854,3.922c3.803,-1.638 5.559,-6.05 3.921,-9.854z"/>
    </g>
   </g>
   <g stroke="null" transform="matrix(0.6636980567140844,0,0,0.6331415912185414,-5399.337515391122,-2073.421364204417) " id="svg_53"/>
   <g stroke="null" transform="matrix(0.6636980567140844,0,0,0.6331415912185414,-5399.337515391122,-2073.421364204417) " id="svg_54"/>
   <g stroke="null" transform="matrix(0.6636980567140844,0,0,0.6331415912185414,-5399.337515391122,-2073.421364204417) " id="svg_55"/>
   <g stroke="null" transform="matrix(0.6636980567140844,0,0,0.6331415912185414,-5399.337515391122,-2073.421364204417) " id="svg_56"/>
   <g stroke="null" transform="matrix(0.6636980567140844,0,0,0.6331415912185414,-5399.337515391122,-2073.421364204417) " id="svg_57"/>
   <g stroke="null" transform="matrix(0.6636980567140844,0,0,0.6331415912185414,-5399.337515391122,-2073.421364204417) " id="svg_58"/>
   <g stroke="null" transform="matrix(0.6636980567140844,0,0,0.6331415912185414,-5399.337515391122,-2073.421364204417) " id="svg_59"/>
   <g stroke="null" transform="matrix(0.6636980567140844,0,0,0.6331415912185414,-5399.337515391122,-2073.421364204417) " id="svg_60"/>
   <g stroke="null" transform="matrix(0.6636980567140844,0,0,0.6331415912185414,-5399.337515391122,-2073.421364204417) " id="svg_61"/>
   <g stroke="null" transform="matrix(0.6636980567140844,0,0,0.6331415912185414,-5399.337515391122,-2073.421364204417) " id="svg_62"/>
   <g stroke="null" transform="matrix(0.6636980567140844,0,0,0.6331415912185414,-5399.337515391122,-2073.421364204417) " id="svg_63"/>
   <g stroke="null" transform="matrix(0.6636980567140844,0,0,0.6331415912185414,-5399.337515391122,-2073.421364204417) " id="svg_64"/>
   <g stroke="null" transform="matrix(0.6636980567140844,0,0,0.6331415912185414,-5399.337515391122,-2073.421364204417) " id="svg_65"/>
   <g stroke="null" transform="matrix(0.6636980567140844,0,0,0.6331415912185414,-5399.337515391122,-2073.421364204417) " id="svg_66"/>
   <g stroke="null" transform="matrix(0.6636980567140844,0,0,0.6331415912185414,-5399.337515391122,-2073.421364204417) " id="svg_67"/>
  </g>
  <g stroke="null" id="svg_88">
   <path stroke="null" id="svg_69" fill="#FFDC64" d="m690.183775,132.278175l-107.20785,-9.585492l-42.585697,-95.334194c-2.981752,-6.674979 -12.799486,-6.674979 -15.780572,0l-42.585697,95.333552l-107.20785,9.585492c-7.506661,0.670965 -10.540361,9.672171 -4.876566,14.468448l80.888916,68.50522l-23.673521,101.258591c-1.657713,7.089758 6.284522,12.653311 12.766851,8.942135l92.576821,-52.994688l92.577487,52.994688c6.481663,3.711176 14.42523,-1.852377 12.767518,-8.942135l-23.672855,-101.257949l80.888915,-68.50522c5.664462,-4.796277 2.631427,-13.797483 -4.8759,-14.468448z"/>
   <path stroke="null" id="svg_70" fill="#FFC850" d="m540.390228,27.358489c-2.981752,-6.674979 -12.799486,-6.674979 -15.780572,0l-42.585697,95.333552l-107.20785,9.585492c-7.506661,0.670965 -10.540361,9.672171 -4.876566,14.468448l80.888916,68.50522l-23.673521,101.258591c-1.657713,7.089758 6.284522,12.653311 12.766851,8.942135l20.662465,-11.828248c2.85987,-113.488777 57.55706,-193.408109 100.862054,-239.127481l-21.05608,-47.137709z"/>
   <path stroke="null" id="svg_71" d="m702.311918,136.477325c-1.705,-5.056316 -6.17463,-8.502958 -11.66726,-8.994143l-104.254737,-9.3216l-20.665795,-46.263849c-1.0916,-2.442442 -4.028728,-3.571204 -6.562917,-2.518206c-2.533523,1.051714 -3.703046,3.884535 -2.612113,6.326334l21.839314,48.889923c0.723293,1.618664 2.306412,2.727522 4.126633,2.889966l107.20785,9.585491c2.127253,0.190054 2.868528,1.728458 3.088979,2.380803c0.219786,0.652345 0.558121,2.316596 -1.046976,3.675862l-80.889581,68.506503c-1.37399,1.163435 -1.978066,2.956742 -1.575793,4.67621l23.673521,101.256665c0.469541,2.009685 -0.818533,3.164773 -1.395302,3.567994c-0.575438,0.403221 -2.111269,1.229568 -3.950138,0.175928l-92.578154,-52.994689c-1.57113,-0.898901 -3.529216,-0.898901 -5.09968,0l-92.578154,52.994689c-1.838202,1.054282 -3.374034,0.227293 -3.950138,-0.175928c-0.576103,-0.403221 -1.864843,-1.558309 -1.395302,-3.567352l12.220052,-52.268505c0.606741,-2.594612 -1.083607,-5.171889 -3.774309,-5.756174c-2.695365,-0.584286 -5.364089,1.044651 -5.970829,3.638621l-12.220053,52.269147c-1.212148,5.186657 0.806545,10.3502 5.268183,13.475806c4.461638,3.124321 10.180047,3.380508 14.920745,0.665828l90.02798,-51.535259l90.02798,51.535259c2.184531,1.250114 4.575527,1.870356 6.9552,1.870356c2.787275,0 5.559231,-0.850746 7.965545,-2.536184c4.462304,-3.125606 6.480331,-8.288507 5.268183,-13.476448l-23.020826,-98.468147l78.663092,-66.617528c4.143948,-3.509565 5.658467,-8.830415 3.9548,-13.887373z"/>
   <path stroke="null" id="svg_72" d="m439.314383,242.596401c-0.60674,2.594612 1.083607,5.171889 3.77431,5.756174c0.370304,0.080259 0.739277,0.119426 1.102921,0.119426c2.284433,0 4.345085,-1.519784 4.867908,-3.758047l6.640174,-28.403335c0.402273,-1.72011 -0.202469,-3.514059 -1.575793,-4.67621l-80.888249,-68.505219c-1.605097,-1.359266 -1.266761,-3.023517 -1.04631,-3.675862c0.219785,-0.652345 0.960394,-2.190749 3.088314,-2.380802l107.207184,-9.585492c1.82022,-0.162444 3.403339,-1.271302 4.126632,-2.889965l42.585031,-95.33291c0.845174,-1.891544 2.591467,-2.096365 3.302771,-2.096365c0.711971,0 2.458263,0.204179 3.303437,2.095723l11.566691,25.892833c1.092266,2.442442 4.029394,3.570562 6.562917,2.518206c2.533523,-1.051714 3.703046,-3.884535 2.612113,-6.326334l-11.566691,-25.893476c-2.181867,-4.882957 -6.962526,-7.916747 -12.478467,-7.916747c-5.514608,0 -10.295934,3.03379 -12.4778,7.917389l-41.412845,92.707478l-104.253405,9.320316c-5.491298,0.491185 -9.96226,3.937185 -11.667259,8.994143c-1.704334,5.056316 -0.189149,10.377808 3.9548,13.887373l78.660427,66.61817l-5.988811,25.613533z"/>
   <g stroke="null" id="svg_73"/>
   <g stroke="null" id="svg_74"/>
   <g stroke="null" id="svg_75"/>
   <g stroke="null" id="svg_76"/>
   <g stroke="null" id="svg_77"/>
   <g stroke="null" id="svg_78"/>
   <g stroke="null" id="svg_79"/>
   <g stroke="null" id="svg_80"/>
   <g stroke="null" id="svg_81"/>
   <g stroke="null" id="svg_82"/>
   <g stroke="null" id="svg_83"/>
   <g stroke="null" id="svg_84"/>
   <g stroke="null" id="svg_85"/>
   <g stroke="null" id="svg_86"/>
   <g stroke="null" id="svg_87"/>
  </g>
 </g>
</svg>